<?xml version="1.0" encoding="utf-8"?>
<!-- Generator: Adobe Illustrator 27.0.1, SVG Export Plug-In . SVG Version: 6.00 Build 0)  -->
<svg xmlns="http://www.w3.org/2000/svg" width="100%" height="100%" viewBox="0 0 512 512">
<defs>
	<linearGradient id="BG1" gradientUnits="userSpaceOnUse" x1="42.344%" y1="33.540%" x2="79.266%" y2="75.971%">
		<stop offset="0" style="stop-color:#EEC5DD"/>
	<stop offset="0.2353" style="stop-color:#EACCE0"/>
	<stop offset="0.6762" style="stop-color:#E4D6E4"/>
	<stop offset="1" style="stop-color:#E1DAE6"/>
	</linearGradient>
</defs>

<g fill="#EEC5DD" fillRule="evenodd" stroke="none" strokeWidth="1">
	<path
		fill="url(#BG1)"
		d="M399.99,339.91c0,69.52-56.36,125.88-125.88,125.88v-63.91c34.23,0,61.97-27.75,61.97-61.97 c0-24.07-16.73-45.3-33.75-55.2c-9.96-5.79-18.7-11.73-28.22-19.33c-17.98-14.36-29.84-35.52-36.41-58.23 c0.12,2.25,0.18,4.51,0.18,6.78c0,69.52-56.36,125.88-125.88,125.88V275.9c34.23,0,61.97-27.75,61.97-61.97 c0-34.22-27.74-61.97-61.97-61.97V88.05c57.35,0,105.74,38.35,120.92,90.81c-0.11-2.24-0.17-4.5-0.17-6.77 c0-69.52,56.36-125.88,125.88-125.88v63.91c-34.23,0-61.97,27.75-61.97,61.97c0,24.07,14.74,43.14,33.75,55.19 c15.39,9.76,19.13,12.46,28.22,19.34C385.62,267.07,399.99,302.92,399.99,339.91z"
	/>
	<path
		fill="#F0C4DC"
		d="M274.11,467.12h-1.33v-66.57h1.33c33.44,0,60.64-27.2,60.64-60.64c0-23.92-17.15-44.78-33.09-54.04 c-10.26-5.96-19.01-11.96-28.38-19.45c-14.88-11.89-26.55-29.15-34.08-50.28c-1.19,69.12-57.79,125-127.19,125h-1.33v-66.57h1.33 c33.44,0,60.64-27.2,60.64-60.64s-27.2-60.64-60.64-60.64h-1.33V86.72h1.33c53.33,0,101.22,33.85,119.43,83.33 c1.1-69.2,57.74-125.17,127.2-125.17h1.33v66.57h-1.33c-33.44,0-60.64,27.2-60.64,60.64c0,21.01,12.08,40.72,33.13,54.07 c15.7,9.95,19.3,12.59,28.31,19.41c26.23,19.86,41.88,55.13,41.88,94.34C401.33,410.05,344.26,467.12,274.11,467.12z M275.45,403.2 v61.25c68.06-0.72,123.21-56.31,123.21-124.54c0-38.38-15.26-72.85-40.83-92.21c-8.94-6.77-12.52-9.38-28.13-19.28 c-21.85-13.85-34.37-34.38-34.37-56.32c0-34.46,27.68-62.58,61.97-63.29V47.55c-68.06,0.72-123.21,56.31-123.21,124.54 c0,2.25,0.06,4.48,0.17,6.7l0.57,11.44l-3.18-11c-15.19-52.48-63.72-89.25-118.31-89.84v61.24c34.29,0.71,61.97,28.83,61.97,63.29 s-27.68,62.58-61.97,63.29v61.25c68.06-0.72,123.21-56.31,123.21-124.54c0-2.23-0.06-4.48-0.18-6.71l-0.62-11.63l3.24,11.18 c7.1,24.53,19.54,44.43,35.96,57.56c9.26,7.4,17.92,13.33,28.06,19.22c17.13,9.96,34.42,31.24,34.42,56.35 C337.42,374.37,309.74,402.49,275.45,403.2z"
	/>
</g>
</svg>